<?xml version="1.0" encoding="utf-8"?>
<!-- Generator: Adobe Illustrator 18.1.1, SVG Export Plug-In . SVG Version: 6.00 Build 0)  -->
<svg version="1.1" baseProfile="tiny" id="Capa_1" xmlns="http://www.w3.org/2000/svg" xmlns:xlink="http://www.w3.org/1999/xlink"
	 x="0px" y="0px" viewBox="0 0 960 560" xml:space="preserve">
<image width="302" height="312" xlink:href="logofamilia.png"  transform="matrix(0.24 0 0 0.24 444 243)">
</image>
<g>
	<path fill="#5CDDFF" d="M455.4,314.6c2.3,0,3.3,1.1,3.3,3.5c0,3-1.5,3.9-3.3,3.9h-0.6v4.8c0,0.3,0,0.3-1.4,0.3v-12.3
		c0-0.2,0.1-0.3,0.3-0.3H455.4z M455.5,320.7c1,0,1.5-0.7,1.5-2.8c0-1.3-0.4-2.1-1.4-2.1h-0.9v4.9H455.5z"/>
	<path fill="#5CDDFF" d="M461.9,314.6c2.3,0,3.3,1.1,3.3,3.5c0,3-1.5,3.9-3.3,3.9h-0.6v4.8c0,0.3,0,0.3-1.4,0.3v-12.3
		c0-0.2,0.1-0.3,0.3-0.3H461.9z M462,320.7c1,0,1.5-0.7,1.5-2.8c0-1.3-0.4-2.1-1.4-2.1h-0.9v4.9H462z"/>
	<path fill="#5CDDFF" d="M470.9,314.6c0,1.2,0,1.2-0.3,1.2h-2.9v3.8h2.7c0,1.1,0,1.3-0.3,1.3h-2.4v5.9c0,0.1,0,0.3-0.3,0.3h-1.2
		v-12.3c0,0,0-0.3,0.3-0.3H470.9z"/>
	<path fill="#5CDDFF" d="M481.7,326.9c0,0.2-0.1,0.3-0.6,0.3c-0.2,0-0.5,0-0.9,0l-0.8-3.2h-3.1l-0.7,3c-0.1,0.2-0.1,0.3-0.7,0.3
		c-0.2,0-0.6,0-0.9-0.1l3.2-12.4c0-0.2,0.2-0.3,0.5-0.3c0.3,0,0.5,0,0.7,0.1L481.7,326.9z M479.2,322.6l-0.6-2.6
		c-0.3-1.2-0.6-2.6-0.6-3.5c-0.1,0.9-0.4,2.3-0.6,3.5l-0.6,2.6H479.2z"/>
	<path fill="#5CDDFF" d="M483.5,314.7c0.6,0,0.7,0.3,0.7,1c0,0.8-0.3,1.2-0.8,1.2c-0.5,0-0.7-0.3-0.7-1.1
		C482.6,315.2,482.9,314.7,483.5,314.7z M484.1,326.9c0,0.3,0,0.3-1.5,0.3v-8.3c0-0.7,0.3-0.7,1.5-0.7V326.9z"/>
	<path fill="#5CDDFF" d="M485.3,319.4c0-1.1,0-1.2,0.3-1.2h0.9v-2.7c0-0.5,0.3-0.5,1.4-0.5v3.2h1.9c0,1.1,0,1.2-0.3,1.2H488v5.3
		c0,0.8,0,1.4,0.7,1.4c0.4,0,0.7-0.1,1-0.3c0.1,0.2,0.1,0.4,0.1,0.7c0,0.6-0.8,0.8-1.5,0.8c-1.5,0-1.7-1.1-1.7-2.7v-5.3H485.3z"/>
	<path fill="#5CDDFF" d="M496.4,326.7c-0.7,0.4-1.7,0.6-2.7,0.6c-2.1,0-2.7-1-2.7-3v-5.9c0-0.3,0-0.3,1.5-0.3v6.3
		c0,1.2,0.2,1.6,1.2,1.6c0.3,0,0.8-0.1,1.2-0.3v-7.3c0-0.3,0-0.3,1.5-0.3V326.7z"/>
	<path fill="#5CDDFF" d="M503,325.4c0.1,0.3,0.1,0.7,0.1,1c0,0.6-1.1,1-2.5,1c-1.7,0-2.9-0.7-2.9-4.2c0-4.5,1.6-5.1,3.2-5.1
		c1.5,0,2.3,1,2.3,2.9c0,0.8-0.1,1.7-0.2,2.3c-1.2,0.2-2.9,0.3-3.8,0.3c0.1,1.9,0.6,2.4,1.7,2.4C501.7,325.9,502.4,325.7,503,325.4z
		 M499.1,316.3c0.8-0.9,2.3-2.1,2.4-2.1c0.3,0,0.6,0.7,0.7,1.1c-0.3,0.3-1.9,1.5-2.5,1.8C499.3,317.1,499.1,316.3,499.1,316.3z
		 M499.3,322.3c0.7,0,1.9,0,2.5-0.2c0.1-0.3,0.1-0.7,0.1-1.1c0-1.3-0.3-1.8-1-1.8C500.1,319.3,499.4,319.9,499.3,322.3z"/>
</g>
</svg>
